<?xml version="1.0" standalone="no"?>
<!DOCTYPE svg PUBLIC "-//W3C//DTD SVG 20010904//EN"
 "http://www.w3.org/TR/2001/REC-SVG-20010904/DTD/svg10.dtd">
<svg version="1.0" xmlns="http://www.w3.org/2000/svg"
 width="512.000000pt" height="512.000000pt" viewBox="0 0 512.000000 512.000000"
 preserveAspectRatio="xMidYMid meet">
<metadata>
Created by potrace 1.14, written by Peter Selinger 2001-2017
</metadata>
<g transform="translate(0.000000,512.000000) scale(0.100000,-0.100000)"
fill="#000000" stroke="none">
<path d="M1598 5015 c-36 -12 -87 -38 -114 -58 -61 -46 -719 -705 -767 -769
-86 -114 -96 -283 -26 -421 12 -23 85 -106 162 -184 l141 -143 -278 0 c-348 0
-378 -6 -493 -98 -55 -43 -97 -104 -121 -178 -19 -56 -20 -87 -21 -594 -1
-567 1 -586 48 -678 12 -23 41 -62 65 -87 l43 -45 -44 -46 c-25 -25 -59 -76
-76 -112 l-32 -67 0 -575 0 -575 32 -67 c41 -88 113 -160 201 -201 l67 -32
540 -3 c393 -3 555 0 595 8 75 17 144 53 196 104 l43 43 48 -45 c26 -25 77
-59 113 -76 l65 -31 575 0 575 0 67 32 c36 17 87 51 112 76 l46 44 45 -43 c25
-24 64 -53 87 -65 92 -47 111 -49 678 -48 507 1 538 2 594 21 74 24 135 66
178 121 100 125 98 107 98 731 0 562 -2 582 -49 674 -12 23 -41 62 -65 87
l-43 45 42 44 c23 23 57 74 76 112 l34 69 2 550 c3 585 2 599 -46 693 -12 23
-41 62 -64 87 l-43 45 44 47 c25 27 59 77 76 113 l31 65 0 575 0 575 -34 73
c-42 88 -105 151 -199 195 l-67 32 -555 2 c-584 3 -589 3 -684 -42 -85 -40
-170 -145 -200 -245 -14 -48 -16 -121 -14 -610 l3 -555 31 -65 c17 -36 51 -87
76 -113 l46 -48 -39 -38 -39 -37 -47 44 c-25 24 -76 58 -112 76 l-66 31 -335
3 c-184 2 -337 6 -339 8 -3 3 53 63 125 134 170 171 212 245 212 381 0 68 -21
154 -44 180 -8 8 -14 22 -14 29 0 15 -699 722 -772 780 -101 81 -247 107 -370
65z m201 -3216 l39 -40 -39 -38 -40 -38 -38 38 -38 39 36 39 c20 22 37 40 39
40 1 1 20 -17 41 -40z m1600 0 l39 -40 -39 -38 -40 -38 -38 38 -38 39 36 39
c20 22 37 40 39 40 1 1 20 -17 41 -40z"/>
</g>
</svg>
